<?xml version="1.0" encoding="utf-8"?>
<!-- Generator: Adobe Illustrator 25.2.0, SVG Export Plug-In . SVG Version: 6.00 Build 0)  -->
<svg version="1.1" xmlns="http://www.w3.org/2000/svg" xmlns:xlink="http://www.w3.org/1999/xlink" x="0px" y="0px"
	 viewBox="0 0 459.56 324.59" style="enable-background:new 0 0 459.56 324.59;" xml:space="preserve">
<style type="text/css">
	.st0{fill:#F5F5F5;}
	.st1{display:none;}
	.st2{display:inline;}
	.st3{fill:#E6E6E6;}
	.st4{fill:#E0E0E0;}
	.st5{fill:#F0F0F0;}
	.st6{opacity:0.4;fill:#E0E0E0;enable-background:new    ;}
	.st7{fill:#FAFAFA;}
	.st8{fill:#FFFFFF;}
	.st9{fill:#EBEBEB;}
	.st10{fill:#407BFF;}
	.st11{opacity:0.8;fill:#FFFFFF;}
	.st12{opacity:0.5;}
	.st13{opacity:0.5;fill:#FFFFFF;}
	.st14{opacity:0.4;fill:#FFFFFF;}
	.st15{opacity:0.4;}
	.st16{fill:#7F3E3B;}
	.st17{opacity:0.2;enable-background:new    ;}
	.st18{fill:#263238;}
	.st19{fill:#630F0F;}
	.st20{opacity:0.1;fill:#FFFFFF;}
	.st21{opacity:0.5;enable-background:new    ;}
	.st22{opacity:0.7;fill:#FFFFFF;}
	.st23{fill:#A02724;}
	.st24{fill:#B55B52;}
	.st25{opacity:0.2;}
	.st26{opacity:0.3;}
	.st27{opacity:0.4;enable-background:new    ;}
</style>
<g id="Shadows_1_">
	<g id="Shadow--inject-214">
		<ellipse id="path--inject-214" class="st0" cx="229.43" cy="293.41" rx="193.89" ry="11.32"/>
	</g>
</g>
<g id="Background_Complete" class="st1">
	<g class="st2">
		<path class="st3" d="M217.82,224.87H24.73c-3.15-0.01-5.7-2.56-5.7-5.71V-52.27c0.03-3.13,2.57-5.65,5.7-5.66h193.09
			c3.15,0,5.71,2.56,5.71,5.71l0,0v271.38C223.53,222.31,220.97,224.87,217.82,224.87z M24.73-57.73c-3.01,0.01-5.45,2.45-5.45,5.46
			v271.43c0,3.01,2.44,5.45,5.45,5.46h193.09c3.01-0.01,5.45-2.45,5.46-5.46V-52.27c-0.01-3.01-2.45-5.45-5.46-5.46H24.73z"/>
		<path class="st3" d="M434.13,224.87h-193.1c-3.15-0.01-5.7-2.56-5.71-5.71V-52.27c0.03-3.13,2.58-5.65,5.71-5.66h193.1
			c3.13,0.01,5.66,2.53,5.69,5.66v271.43C439.82,222.3,437.28,224.86,434.13,224.87z M241.03-57.73c-3.01,0.01-5.45,2.45-5.46,5.46
			v271.43c0.01,3.01,2.45,5.45,5.46,5.46h193.1c3.01-0.01,5.45-2.45,5.46-5.46V-52.27c-0.01-3.01-2.45-5.45-5.46-5.46H241.03z"/>
	</g>
	<g class="st2">
		<rect x="33.22" y="275.55" class="st4" width="41.21" height="0.25"/>
		<rect x="117.1" y="273.55" class="st4" width="41.33" height="0.25"/>
		<rect x="202.21" y="273.55" class="st4" width="10" height="0.25"/>
		<rect x="66.01" y="282.09" class="st4" width="46.25" height="0.25"/>
		<rect x="250.63" y="275.42" class="st4" width="21.6" height="0.25"/>
		<rect x="281.13" y="275.42" class="st4" width="27.93" height="0.25"/>
		<rect x="381.32" y="279.65" class="st4" width="62.44" height="0.25"/>
	</g>
	<g class="st2">
		<rect x="344.26" y="-2.44" class="st3" width="47.61" height="33.27"/>
		<g>
			<rect x="344.26" y="-2.44" class="st5" width="21.47" height="33.27"/>
			<path class="st6" d="M354.97,2.07c3.92,0,7.09,3.17,7.09,7.09s-3.17,7.09-7.09,7.09c-3.92,0-7.09-3.17-7.09-7.09
				S351.06,2.07,354.97,2.07z"/>
			<path class="st4" d="M358.43,22.99c0,1.91-1.55,3.46-3.46,3.46c-1.91,0-3.46-1.55-3.46-3.46c0-1.91,1.55-3.46,3.46-3.46h0
				C356.88,19.53,358.43,21.08,358.43,22.99z"/>
		</g>
		<circle class="st7" cx="354.92" cy="9.64" r="2.02"/>
	</g>
	<g class="st2">
		<g>
			<g>
				<rect x="269.63" y="-14.35" class="st5" width="20.59" height="45.2"/>
			</g>
			<g>
				<rect x="289.66" y="-14.35" class="st3" width="27.32" height="45.2"/>
			</g>
			<g>
				<g>
					<path class="st8" d="M279.85,0c1.57,0,2.85,1.28,2.85,2.85c0,1.57-1.28,2.85-2.85,2.85c-1.57,0-2.85-1.28-2.85-2.85
						C277,1.28,278.28,0,279.85,0z"/>
				</g>
				<g>
					<path class="st8" d="M279.85-4.45c0.79,0,1.43,0.64,1.43,1.43s-0.64,1.43-1.43,1.43c-0.79,0-1.43-0.64-1.43-1.43
						S279.07-4.45,279.85-4.45z"/>
				</g>
				<g>
					<path class="st8" d="M279.85-8.77c0.79,0,1.43,0.64,1.43,1.43s-0.64,1.43-1.43,1.43c-0.79,0-1.43-0.64-1.43-1.43
						S279.07-8.77,279.85-8.77z"/>
				</g>
			</g>
			<g>
				<rect x="270.1" y="11" class="st4" width="46.4" height="0.71"/>
				<rect x="270.1" y="15.01" class="st4" width="46.4" height="0.71"/>
				<rect x="270.1" y="19.02" class="st4" width="46.4" height="0.71"/>
				<rect x="270.1" y="23.03" class="st4" width="46.4" height="0.71"/>
				<rect x="270.1" y="27.04" class="st4" width="46.4" height="0.71"/>
			</g>
			<g>
				<g>
					<rect x="278.38" y="12.22" class="st4" width="1.96" height="1.96"/>
				</g>
			</g>
			<g>
				<g>
					<rect x="278.38" y="16.43" class="st4" width="1.96" height="1.96"/>
				</g>
			</g>
			<g>
				<g>
					<rect x="278.38" y="20.24" class="st4" width="1.96" height="1.96"/>
				</g>
			</g>
			<g>
				<g>
					<rect x="278.38" y="24.34" class="st4" width="1.96" height="1.96"/>
				</g>
			</g>
			<g>
				<g>
					<rect x="278.38" y="28.32" class="st4" width="1.96" height="1.96"/>
				</g>
			</g>
		</g>
		<g>
			<path class="st4" d="M230.29,75.35h-1v-38.3c0-4.3,3.5-7.8,7.8-7.8h33v1h-33c-3.75,0-6.8,3.05-6.8,6.8V75.35z"/>
		</g>
		<g>
			<path class="st4" d="M228.29,75.41h-1V36.77c0-5.22,4.24-9.46,9.46-9.46h33.34v1h-33.34c-4.66,0-8.46,3.79-8.46,8.46V75.41z"/>
		</g>
	</g>
	<g class="st2">
		<rect x="87.49" y="-20.66" class="st3" width="31.31" height="33.33"/>
		<rect x="118.8" y="-20.66" class="st0" width="8.02" height="33.33"/>
		<rect x="79.28" y="-25.8" class="st3" width="23.52" height="38.47"/>
		<rect x="102.79" y="-25.8" class="st0" width="6.8" height="38.47"/>
		<rect x="76.04" y="-20.66" class="st9" width="19.83" height="33.33"/>
		<rect x="95.87" y="-20.66" class="st0" width="4.53" height="33.33"/>
		<rect x="53.63" y="-15.02" class="st3" width="26.01" height="27.69"/>
		<rect x="79.64" y="-15.02" class="st0" width="6.66" height="27.69"/>
		<rect x="46.81" y="-19.29" class="st3" width="19.54" height="31.96"/>
		<rect x="66.34" y="-19.29" class="st0" width="5.65" height="31.96"/>
		<rect x="41.61" y="-15.02" class="st3" width="18.98" height="27.69"/>
		<rect x="60.6" y="-15.02" class="st5" width="3.76" height="27.69"/>
	</g>
	<g class="st2">
		
			<rect x="19.42" y="12.65" transform="matrix(-1 -1.224647e-16 1.224647e-16 -1 242.8478 34.9482)" class="st3" width="204" height="9.65"/>
		<g>
			<polygon class="st4" points="56.03,22.52 67.32,22.52 59.1,34.94 56.03,34.94 			"/>
			<rect x="54.41" y="22.52" class="st4" width="1.63" height="12.41"/>
		</g>
		<g>
			<polygon class="st4" points="182.74,22.52 194.03,22.52 185.81,34.94 182.74,34.94 			"/>
			<rect x="181.11" y="22.52" class="st4" width="1.63" height="12.41"/>
		</g>
	</g>
	<g class="st2">
		<rect x="235.66" y="30.84" class="st3" width="204" height="9.65"/>
		<g>
			<polygon class="st4" points="403.05,53.13 399.99,53.13 391.77,40.72 403.05,40.72 			"/>
			<rect x="403.05" y="40.72" class="st4" width="1.63" height="12.41"/>
		</g>
		<g>
			<polygon class="st4" points="276.34,53.13 273.28,53.13 265.06,40.72 276.34,40.72 			"/>
			<rect x="276.34" y="40.72" class="st4" width="1.63" height="12.41"/>
		</g>
	</g>
	<g class="st2">
		<g>
			<path class="st5" d="M176.88-6.77c0-1.47-0.22-2.89-0.63-4.23l3.71-3.26l-2.34-4.05l-4.68,1.58c-1.94-2.07-4.47-3.57-7.32-4.23
				l-0.97-4.84h-4.67l-0.97,4.84c-2.85,0.66-5.39,2.16-7.33,4.23L147-18.31l-2.34,4.05l3.71,3.26c-0.41,1.34-0.63,2.76-0.63,4.23
				c0,1.47,0.22,2.89,0.63,4.23l-3.71,3.26L147,4.76l4.68-1.58c1.94,2.07,4.47,3.57,7.33,4.23l0.97,4.84h4.67l0.97-4.84
				c2.85-0.67,5.39-2.17,7.32-4.23l4.68,1.58l2.34-4.05l-3.71-3.26C176.66-3.88,176.88-5.3,176.88-6.77z M162.31,1.09
				c-4.18,0-7.57-3.39-7.57-7.57s3.39-7.57,7.57-7.57s7.57,3.39,7.57,7.57S166.49,1.09,162.31,1.09z"/>
		</g>
		<g>
			<path class="st5" d="M202.14-4.33c-0.51-0.83-1.12-1.55-1.8-2.16l0.96-3.11l-2.7-1.47l-2.08,2.5c-1.8-0.5-3.74-0.47-5.57,0.14
				l-2.21-2.39l-2.62,1.61l1.12,3.05c-1.37,1.35-2.28,3.07-2.66,4.89l-3.17,0.72l0.08,3.08l3.2,0.56c0.23,0.89,0.6,1.76,1.1,2.59
				c0.51,0.83,1.12,1.55,1.81,2.16l-0.96,3.11l2.7,1.47l2.08-2.5c1.8,0.5,3.74,0.47,5.57-0.14l2.21,2.39l2.62-1.61l-1.12-3.05
				c1.37-1.36,2.28-3.07,2.66-4.9l3.17-0.72l-0.08-3.07l-3.2-0.56C203.01-2.63,202.65-3.5,202.14-4.33z M196.66,5.09
				c-2.35,1.44-5.41,0.7-6.85-1.65c-1.44-2.35-0.7-5.42,1.65-6.85c2.35-1.44,5.42-0.7,6.85,1.65
				C199.75,0.59,199.01,3.66,196.66,5.09z"/>
		</g>
	</g>
</g>
<g id="Background_Simple_1_" class="st1">
	<g id="Layer_8" class="st2">
		<g>
			<path class="st10" d="M364.77-58.61c-24.6-18.47-61.01-13.59-90.14-3.71c-29.13,9.88-54.33,30.89-69.29,57.77
				c-8.75,15.73-14.31,33.62-26.62,46.76c-18.91,20.19-52.9,23.96-75.78,8.4c-11.96-8.14-23.45-21.43-37.65-18.64
				c-8.04,1.58-14.27,8.42-17.21,16.06c-2.94,7.65-3.09,16.06-2.83,24.25c0.72,22.37,4.38,44.88,13.27,65.42
				c8.89,20.54,23.28,39.07,42.42,50.67c22.69,13.74,51,16.89,76.86,10.95c25.86-5.94,49.29-20.48,68.07-39.21
				c14.82-14.78,26.88-32.07,41.01-47.51c14.13-15.44,31.06-29.37,51.33-34.59c14.39-3.7,29.55-2.79,44.23-5.1
				c14.68-2.31,30.1-9.03,36.41-22.48c5.51-11.72,2.77-25.61-1.53-37.82C406.73-17.45,390.25-39.48,364.77-58.61z"/>
			<path class="st11" d="M364.77-58.61c-24.6-18.47-61.01-13.59-90.14-3.71c-29.13,9.88-54.33,30.89-69.29,57.77
				c-8.75,15.73-14.31,33.62-26.62,46.76c-18.91,20.19-52.9,23.96-75.78,8.4c-11.96-8.14-23.45-21.43-37.65-18.64
				c-8.04,1.58-14.27,8.42-17.21,16.06c-2.94,7.65-3.09,16.06-2.83,24.25c0.72,22.37,4.38,44.88,13.27,65.42
				c8.89,20.54,23.28,39.07,42.42,50.67c22.69,13.74,51,16.89,76.86,10.95c25.86-5.94,49.29-20.48,68.07-39.21
				c14.82-14.78,26.88-32.07,41.01-47.51c14.13-15.44,31.06-29.37,51.33-34.59c14.39-3.7,29.55-2.79,44.23-5.1
				c14.68-2.31,30.1-9.03,36.41-22.48c5.51-11.72,2.77-25.61-1.53-37.82C406.73-17.45,390.25-39.48,364.77-58.61z"/>
		</g>
	</g>
</g>
<g id="Desk">
	<g>
		<g id="Group">
			<rect x="25.99" y="156.46" class="st10" width="407.62" height="5.13"/>
			<polygon class="st10" points="50.26,160.14 50.26,282.48 53.44,282.48 57.44,160.14 			"/>
			<g>
				<polygon class="st10" points="87.8,164.14 87.8,277.48 90.99,277.48 94.99,164.14 				"/>
				<polygon class="st12" points="87.8,164.14 87.8,277.48 90.99,277.48 94.99,164.14 				"/>
			</g>
			<polygon class="st10" points="410.77,160.14 410.77,282.48 407.6,282.48 403.59,160.14 			"/>
			<g>
				<polygon class="st10" points="373.24,164.14 373.24,277.48 370.06,277.48 366.06,164.14 				"/>
				<polygon class="st12" points="373.24,164.14 373.24,277.48 370.06,277.48 366.06,164.14 				"/>
			</g>
			<g>
				<polygon class="st10" points="418.02,167.08 42.76,167.08 34.46,161.59 426.32,161.59 				"/>
				<polygon class="st12" points="418.02,167.08 42.76,167.08 34.46,161.59 426.32,161.59 				"/>
			</g>
		</g>
	</g>
</g>
<g id="Beverages">
	<g>
		<path class="st10" d="M52.78,140.73v3.96c0,0.67,0.26,1.29,0.73,1.77l3.17,3.17c0.29,0.29,0.64,0.49,1.03,0.61
			c1.29,2.78,4.11,4.72,7.38,4.72h1.19c4.5,0,8.14-3.65,8.14-8.14v-9.33H56.94v0.76h-1.67C53.9,138.23,52.78,139.35,52.78,140.73z
			 M54.78,140.73c0-0.27,0.22-0.5,0.5-0.5h1.67v6.57c0,0.09,0.01,0.18,0.01,0.27l-2.04-2.03c-0.09-0.09-0.15-0.22-0.15-0.35V140.73z
			"/>
		<path class="st13" d="M52.78,140.73v3.96c0,0.67,0.26,1.29,0.73,1.77l3.17,3.17c0.29,0.29,0.64,0.49,1.03,0.61
			c1.29,2.78,4.11,4.72,7.38,4.72h1.19c4.5,0,8.14-3.65,8.14-8.14v-9.33H56.94v0.76h-1.67C53.9,138.23,52.78,139.35,52.78,140.73z
			 M54.78,140.73c0-0.27,0.22-0.5,0.5-0.5h1.67v6.57c0,0.09,0.01,0.18,0.01,0.27l-2.04-2.03c-0.09-0.09-0.15-0.22-0.15-0.35V140.73z
			"/>
		<g>
			<path class="st10" d="M78.57,156.29H53.43c-1.63,0-2.96-1.48-2.96-1.48h31.06C81.53,154.81,80.2,156.29,78.57,156.29z"/>
			<path class="st13" d="M78.57,156.29H53.43c-1.63,0-2.96-1.48-2.96-1.48h31.06C81.53,154.81,80.2,156.29,78.57,156.29z"/>
		</g>
	</g>
	<g>
		<g>
			<g>
				<path class="st10" d="M416.79,144.1c-0.13-3.97-3.15-4.94-7.1-5.39v-1.45c-0.01-0.35-0.29-0.62-0.64-0.62c0,0-0.01,0-0.01,0
					h-13.62c-0.35-0.01-0.65,0.26-0.67,0.62c0,0,0,0,0,0v18.91h14.94v-2.07C413.64,153.66,416.67,148.07,416.79,144.1z
					 M409.69,151.65v-10.5c2.9,0.43,4.9,0.82,4.48,3.72C413.83,147.19,412.01,151.31,409.69,151.65z"/>
			</g>
		</g>
		<g class="st12">
			<path class="st8" d="M416.79,144.1c-0.13-3.97-3.15-4.94-7.1-5.39v-1.45c-0.01-0.35-0.29-0.62-0.64-0.62c0,0-0.01,0-0.01,0
				h-13.62c-0.35-0.01-0.65,0.26-0.67,0.62c0,0,0,0,0,0v18.91h14.94v-2.07C413.64,153.66,416.67,148.07,416.79,144.1z
				 M409.69,151.65v-10.5c2.9,0.43,4.9,0.82,4.48,3.72C413.83,147.19,412.01,151.31,409.69,151.65z"/>
		</g>
	</g>
</g>
<g id="PC">
	<g>
		<g>
			<g>
				<rect x="223.53" y="132.07" class="st10" width="11.79" height="23.95"/>
				<rect x="223.53" y="132.07" class="st13" width="11.79" height="23.95"/>
			</g>
			<g>
				<polygon class="st10" points="240.64,156.45 218.31,156.45 223.75,151.65 235.2,151.65 				"/>
				<polygon class="st13" points="240.64,156.45 218.31,156.45 223.75,151.65 235.2,151.65 				"/>
			</g>
		</g>
		<g>
			<g>
				<g>
					<polygon class="st10" points="289.76,148.69 233.92,148.69 244.01,156.48 299.84,156.48 					"/>
					<polygon class="st14" points="289.76,148.69 233.92,148.69 244.01,156.48 299.84,156.48 					"/>
				</g>
			</g>
			<g>
				<polygon class="st10" points="235.21,156.48 233.92,148.69 244.01,156.48 				"/>
				<polygon class="st12" points="235.21,156.48 233.92,148.69 244.01,156.48 				"/>
			</g>
		</g>
		<g>
			<path class="st10" d="M178.32,75.38h101.64c1.06,0,1.93,0.86,1.93,1.93v62.32c0,1.06-0.86,1.93-1.93,1.93H178.32
				c-1.06,0-1.93-0.86-1.93-1.93V77.31C176.39,76.24,177.26,75.38,178.32,75.38z"/>
			<rect x="180.23" y="79.52" class="st12" width="97.72" height="57.67"/>
		</g>
		<g>
			<g>
				<rect x="225.53" y="91.38" class="st15" width="49.31" height="33.95"/>
				<rect x="225.53" y="91.38" class="st10" width="49.31" height="3.11"/>
			</g>
			<g>
				<path class="st8" d="M234.57,110.15l8.06,4.47c0.4,0.23,0.67,0.43,0.81,0.61c0.13,0.18,0.2,0.4,0.2,0.68
					c0,0.35-0.13,0.65-0.38,0.9c-0.25,0.25-0.54,0.38-0.87,0.38c-0.22,0-0.55-0.12-0.98-0.36l-10.4-5.78c-0.7-0.39-0.7-1.4,0-1.79
					l10.4-5.78c0.44-0.23,0.76-0.35,0.97-0.35c0.34,0,0.64,0.13,0.89,0.38c0.25,0.25,0.38,0.55,0.38,0.9c0,0.28-0.07,0.5-0.2,0.68
					c-0.13,0.18-0.4,0.38-0.81,0.61L234.57,110.15z"/>
				<path class="st8" d="M255.31,101.83l-7.98,17.19c-0.2,0.43-0.38,0.71-0.55,0.84c-0.21,0.17-0.47,0.25-0.76,0.25
					c-0.34,0-0.63-0.12-0.88-0.36c-0.25-0.24-0.37-0.52-0.37-0.83c0-0.22,0.1-0.54,0.29-0.96l8-17.18c0.2-0.43,0.38-0.71,0.53-0.84
					c0.22-0.17,0.47-0.26,0.77-0.26c0.34,0,0.63,0.12,0.87,0.36c0.24,0.24,0.36,0.51,0.36,0.82
					C255.6,101.08,255.5,101.4,255.31,101.83z"/>
				<path class="st8" d="M265.34,110.15l-8.06-4.47c-0.4-0.23-0.67-0.43-0.81-0.61c-0.13-0.18-0.2-0.4-0.2-0.68
					c0-0.35,0.13-0.65,0.38-0.9c0.25-0.25,0.55-0.38,0.89-0.38c0.21,0,0.53,0.12,0.97,0.35l10.4,5.78c0.7,0.39,0.7,1.4,0,1.79
					l-10.4,5.78c-0.44,0.24-0.76,0.36-0.97,0.36c-0.34,0-0.64-0.13-0.9-0.39c-0.24-0.24-0.37-0.56-0.37-0.9
					c0-0.27,0.07-0.5,0.2-0.68c0.13-0.18,0.4-0.38,0.81-0.61L265.34,110.15z"/>
			</g>
		</g>
		<g>
			<g>
				<rect x="184.23" y="84.84" class="st8" width="3.34" height="3.34"/>
				<rect x="184.23" y="93.48" class="st8" width="3.34" height="3.34"/>
				<rect x="184.23" y="102.12" class="st8" width="3.34" height="3.34"/>
				<rect x="184.23" y="110.77" class="st8" width="3.34" height="3.34"/>
				<rect x="184.23" y="119.41" class="st8" width="3.34" height="3.34"/>
				<rect x="184.23" y="128.05" class="st8" width="3.34" height="3.34"/>
			</g>
			<g>
				<rect x="190.74" y="85.59" class="st8" width="13.31" height="1"/>
			</g>
			<g>
				<rect x="193.84" y="94.26" class="st8" width="4.74" height="1"/>
			</g>
			<g>
				<rect x="214.47" y="103.98" class="st8" width="4.74" height="1"/>
			</g>
			<g>
				<rect x="193.84" y="111.69" class="st8" width="4.74" height="1"/>
			</g>
			<g>
				<rect x="200.68" y="111.69" class="st8" width="4.74" height="1"/>
			</g>
			<g>
				<rect x="200.68" y="103.98" class="st8" width="12.11" height="1"/>
			</g>
			<g>
				<rect x="207.74" y="111.69" class="st8" width="7.97" height="1"/>
			</g>
			<g>
				<rect x="207.71" y="130.22" class="st8" width="4.74" height="1"/>
			</g>
			<g>
				<rect x="214.54" y="130.22" class="st8" width="4.74" height="1"/>
			</g>
			<g>
				<rect x="221.6" y="130.22" class="st8" width="2.65" height="1"/>
			</g>
			<g>
				<rect x="200.96" y="94.26" class="st8" width="14.75" height="1"/>
			</g>
			<g>
				<rect x="200.68" y="120.72" class="st8" width="4.74" height="1"/>
			</g>
			<g>
				<rect x="207" y="120.72" class="st8" width="2.74" height="1"/>
			</g>
			<g>
				<rect x="211.84" y="120.72" class="st8" width="7.74" height="1"/>
			</g>
		</g>
	</g>
</g>
<g id="Speech_Code">
	<g>
		<g>
			<g>
				<path class="st10" d="M220.86,47.84c-0.24,12.1-12.82,22.24-28.09,22.65c-4.68,0.16-9.32-0.7-13.68-2.53
					c-1.53,3.8-4.78,7.06-14.07,8.52c9.7-7.49,4.39-13.82,2.18-19.4l0,0c-1.12-2.33-1.7-5.02-1.67-7.78
					c0.24-12.11,12.82-22.24,28.09-22.65C208.9,26.21,221.11,35.74,220.86,47.84z"/>
			</g>
		</g>
		<g>
			<g>
				<rect x="180.22" y="35.17" class="st8" width="13.31" height="1"/>
			</g>
			<g>
				<rect x="183.32" y="43.84" class="st8" width="4.74" height="1"/>
			</g>
			<g>
				<rect x="203.95" y="53.56" class="st8" width="4.74" height="1"/>
			</g>
			<g>
				<rect x="183.32" y="61.27" class="st8" width="4.74" height="1"/>
			</g>
			<g>
				<rect x="190.15" y="61.27" class="st8" width="4.74" height="1"/>
			</g>
			<g>
				<rect x="190.15" y="53.56" class="st8" width="12.11" height="1"/>
			</g>
			<g>
				<rect x="197.21" y="61.27" class="st8" width="7.97" height="1"/>
			</g>
			<g>
				<rect x="190.43" y="43.84" class="st8" width="14.75" height="1"/>
			</g>
		</g>
	</g>
</g>
<g id="Character_2">
	<g>
		<g>
			<g>
				<g>
					<g>
						<polygon class="st16" points="278.59,277.09 271.3,274.91 273,257.04 280.29,259.22 						"/>
						<polygon class="st17" points="280.89,255.18 273.6,253.01 272.65,263.02 280.02,264.39 						"/>
					</g>
					<path class="st10" d="M321.74,166.72c0,0-50.13,4.23-48.9,26c1.01,17.82,3.65,12.98-1.54,65.97l12.61,0.7
						c0,0,12.83-43.34,11.1-60.56c14.13,0,46.48,1.24,51.18-11.51c2.33-6.47,3.47-13.32,3.35-20.2L321.74,166.72z"/>
				</g>
				<polygon class="st18" points="285.92,261.82 269.44,259 269.71,251.71 286.77,255.5 				"/>
			</g>
			<g>
				<path class="st18" d="M270.55,271.91l8.42,1.67c0.3,0.04,0.51,0.36,0.48,0.71l-0.7,7.96c-0.13,0.86-0.81,1.44-1.54,1.31
					c-2.92-0.64-4.3-1.11-8-1.84c-2.28-0.45-7.49-1.55-10.66-1.9c-3.17-0.35-2.79-4.06-1.42-4.25c6.16-0.82,9.66-1.81,12.05-3.35
					C269.6,271.93,270.08,271.82,270.55,271.91z"/>
				<g>
					<path class="st10" d="M266.78,273.35c0.66,0.09,1.33,0.11,2,0.06c0.07,0,0.13-0.05,0.15-0.11c0.03-0.06,0.03-0.13,0-0.19
						c-0.21-0.21-2.1-2-3.07-1.8c-0.23,0.04-0.42,0.2-0.49,0.42c-0.16,0.32-0.14,0.7,0.06,1
						C265.78,273.1,266.26,273.32,266.78,273.35z M268.39,273.08c-1.39,0-2.37-0.16-2.66-0.57c-0.12-0.2-0.12-0.44,0-0.64
						c0.03-0.11,0.12-0.19,0.23-0.22C266.47,271.54,267.61,272.38,268.39,273.08z"/>
					<path class="st10" d="M268.79,273.41c0,0,0.05,0,0.08,0c0.06-0.02,0.1-0.07,0.12-0.13c0-0.09,0.55-2.22-0.09-3.07
						c-0.16-0.23-0.42-0.37-0.7-0.37c-0.31-0.04-0.61,0.13-0.72,0.42c-0.31,0.79,0.55,2.54,1.22,3.11
						C268.72,273.39,268.75,273.41,268.79,273.41z M268.27,270.2c0.14,0.02,0.27,0.1,0.35,0.22c0.29,0.79,0.32,1.65,0.09,2.46
						c-0.61-0.69-0.93-1.58-0.9-2.49c0-0.1,0.11-0.21,0.37-0.2L268.27,270.2z"/>
				</g>
			</g>
			<g>
				<g>
					<polygon class="st16" points="246.09,279.87 239.15,276.75 243.95,259.63 250.89,262.75 					"/>
					<polygon class="st17" points="252.06,258.34 245.12,255.22 242.65,264.05 249.59,267.17 					"/>
				</g>
				<g>
					<path class="st10" d="M306.82,166.72c-0.33,0-56.2,5.75-56.27,24.7c-0.12,31.34-9.07,67.27-9.07,67.27l11.04,5.47
						c0,0,19.23-38.95,18.94-63.38c15.37-4.41,55.13,3,59.83-9.74c3.85-10.42,1.77-24.32,1.77-24.32L306.82,166.72z"/>
					<polygon class="st18" points="254.29,265.74 239.49,259.08 240.68,253.02 256.29,258.41 					"/>
				</g>
			</g>
			<g>
				<path class="st18" d="M239.84,270.99l8.44,1.75c0.29,0.05,0.5,0.4,0.47,0.78l-0.66,8.75c-0.11,0.95-0.8,1.6-1.53,1.45
					c0,0,0,0,0,0c-2.92-0.68-4.3-1.19-8-1.96c-2.28-0.47-8.49-1.97-11.62-2.79c-3.13-0.82-2.43-4.8-1-4.83
					c6.19-0.09,10.2-1.1,12.58-2.83C238.92,271.02,239.39,270.91,239.84,270.99z"/>
				<g>
					<path class="st10" d="M236.38,272.88c0.59-0.32,1.14-0.7,1.65-1.14c0.06-0.05,0.08-0.12,0.06-0.19
						c-0.02-0.06-0.08-0.11-0.15-0.12c-0.29-0.05-2.87-0.38-3.54,0.36c-0.15,0.17-0.2,0.41-0.14,0.63c0.06,0.35,0.3,0.65,0.64,0.77
						C235.41,273.29,235.94,273.17,236.38,272.88z M237.51,271.71c-1.09,0.85-2,1.27-2.47,1.12c-0.21-0.09-0.36-0.29-0.38-0.53
						c-0.04-0.11-0.01-0.22,0.06-0.31C235.07,271.64,236.47,271.62,237.51,271.71z"/>
					<path class="st10" d="M238.02,271.75l0.07-0.05c0.04-0.05,0.04-0.11,0.02-0.16c-0.05-0.07-0.88-2.12-1.89-2.43
						c-0.26-0.09-0.55-0.04-0.78,0.12c-0.27,0.15-0.41,0.47-0.33,0.77c0.21,0.82,1.94,1.72,2.83,1.78
						C237.97,271.77,238,271.76,238.02,271.75z M235.7,269.47c0.13-0.07,0.28-0.09,0.41-0.04c0.71,0.47,1.24,1.14,1.54,1.93
						c-0.9-0.19-1.69-0.72-2.21-1.47c-0.06-0.08-0.03-0.23,0.18-0.38L235.7,269.47z"/>
				</g>
			</g>
			<g>
				<path class="st16" d="M325.8,106.25c1.47,3.16,2.68,6.2,3.89,9.36c1.21,3.16,2.28,6.32,3.27,9.56c0.99,3.24,1.85,6.56,2.54,10
					c0.75,3.57,1.13,7.22,1.12,10.87c-0.01,2.14-0.33,4.28-0.95,6.33c-0.39,1.26-0.95,2.46-1.67,3.56c-0.42,0.63-0.9,1.21-1.43,1.74
					l-0.43,0.42c-0.24,0.2-0.5,0.42-0.75,0.59c-0.42,0.29-0.87,0.54-1.34,0.74c-0.69,0.31-1.42,0.54-2.16,0.69
					c-0.58,0.12-1.17,0.21-1.77,0.26c-1.02,0.06-2.03,0.06-3.05,0c-1.8-0.09-3.6-0.29-5.38-0.6c-6.64-1.21-13.14-3.07-19.41-5.56
					l1.45-5.51c6.35,0.76,12.83,1.57,18.94,1.85c1.52,0,3,0.07,4.38,0c0.61-0.03,1.23-0.11,1.83-0.23c0.5-0.09,0.93-0.27,0.78-0.26
					c-0.1,0.03-0.19,0.08-0.28,0.14c-0.1,0.06-0.19,0.13-0.28,0.21l0,0c0,0,0.05-0.08,0.09-0.17c0.13-0.29,0.23-0.58,0.3-0.89
					c0.22-1.1,0.31-2.22,0.27-3.34c-0.15-2.86-0.57-5.71-1.27-8.49c-0.68-3-1.56-5.92-2.52-8.89c-0.96-2.97-2-5.94-3.14-8.9
					c-1.14-2.96-2.34-5.93-3.52-8.72L325.8,106.25z"/>
				<path class="st16" d="M302.49,150.2l-6.63-3.73l-3.33,7.18c0,0,7.75,3.23,9.38,1.21L302.49,150.2z"/>
				<polygon class="st16" points="290.49,147.83 287.46,152.63 292.53,153.6 295.86,146.42 				"/>
			</g>
			<g>
				<path class="st16" d="M310.34,111.96c-1.27,3.19-2.6,6.24-4,9.33c-1.4,3.09-2.8,6.13-4.28,9.17c-2.98,6.19-6.32,12.2-10,18
					c-1,1.48-2,2.95-3.12,4.42c-0.56,0.74-1.18,1.47-1.84,2.22c-0.36,0.38-0.65,0.73-1.07,1.12l-0.6,0.58l-0.34,0.32
					c-0.95,0.81-2.07,1.41-3.28,1.74c-0.64,0.18-1.28,0.32-1.94,0.41c-1.07,0.13-2.14,0.17-3.22,0.13
					c-1.86-0.06-3.71-0.24-5.54-0.55c-6.78-1.2-13.42-3.08-19.82-5.62l1.46-5.52c6.47,0.78,13.08,1.61,19.3,1.87
					c1.47,0.06,2.94,0.04,4.4-0.06c0.59-0.05,1.18-0.14,1.75-0.28c0.19-0.04,0.37-0.11,0.54-0.2c0.06,0,0-0.07-0.27,0.1
					c-0.1,0.05-0.19,0.12-0.27,0.2c0,0,0.07-0.09,0.1-0.12l0.28-0.31c0.18-0.18,0.4-0.48,0.61-0.72c0.41-0.52,0.83-1.08,1.25-1.69
					c0.83-1.19,1.64-2.51,2.44-3.85c1.6-2.68,3.09-5.53,4.55-8.41s2.86-5.82,4.24-8.78c2.75-5.9,5.44-11.95,8-17.9L310.34,111.96z"
					/>
				<g>
					<path class="st16" d="M255.59,149.15l-6.64-3.78l-3.33,7.18c0,0,7.75,3.24,9.39,1.22L255.59,149.15z"/>
					<polygon class="st16" points="243.59,146.79 240.55,151.58 245.62,152.55 248.95,145.37 					"/>
				</g>
			</g>
			<g>
				<path class="st16" d="M327.51,76.48l-4.24,4.91l-6.47,6.69c0.13,0.33,0.31,0.76,0.49,1.21c0.5,1.23,0.79,2.54,0.86,3.87
					c0.14,2.68-0.12,4.95-4.35,6.77c0,0-4.44,5.8,6.12,4.19s12.15-7.09,12.15-7.09C327.4,93.71,327.14,82.64,327.51,76.48z"/>
				<g>
					<path class="st18" d="M305.98,70.94c0,0.66-0.33,1.22-0.77,1.24c-0.44,0.02-0.79-0.5-0.8-1.16c-0.01-0.66,0.34-1.22,0.77-1.24
						C305.61,69.76,305.97,70.28,305.98,70.94z"/>
					<path class="st18" d="M308.19,68.48c-0.13,0-0.25-0.07-0.32-0.18c-0.52-0.86-1.42-1.43-2.42-1.54
						c-0.21-0.01-0.38-0.19-0.38-0.4c0.01-0.22,0.18-0.39,0.4-0.38c0,0,0,0,0,0l0,0c1.26,0.11,2.4,0.82,3.06,1.9
						c0.11,0.18,0.06,0.42-0.12,0.54C308.35,68.45,308.27,68.48,308.19,68.48z"/>
					<path class="st19" d="M305.74,71.31c-0.54,1.8-1.31,3.52-2.3,5.12c0.83,0.47,1.83,0.54,2.72,0.2L305.74,71.31z"/>
					<path class="st16" d="M328.11,67.61c-0.39,8.16-0.21,13-4.26,17.32c-3.94,4.35-10.67,4.67-15.02,0.73
						c-1.59-1.45-2.71-3.34-3.2-5.44c-1.84-7.23-0.88-19.36,7-23c5.32-2.63,11.76-0.46,14.39,4.86
						C327.87,63.79,328.25,65.7,328.11,67.61z"/>
				</g>
			</g>
			<g>
				<g>
					<path class="st18" d="M331.82,70.33c-1.18,3.46-2.97,6.68-5.3,9.5l-10.62,2c0,0-8.39-3.51-6.15-9.29
						c-1.42-1.2-0.89-4.91,0.11-6.95c1.6,1.28,4.23,1.39,5.67-0.15c1.16,2.13,4.64,2.43,6.15,0.51c1.73,1.92,5.42,1.33,6.46-1.04
						c1.28,0.84,3.12,0.72,4.28-0.28c0.05-0.05,0.1-0.09,0.15-0.14C332.74,65.95,332.57,67.86,331.82,70.33z"/>
					<path class="st20" d="M331.82,70.33c-1.18,3.46-2.97,6.68-5.3,9.5l-10.62,2c0,0-8.39-3.51-6.15-9.29
						c-1.42-1.2-0.89-4.91,0.11-6.95c1.6,1.28,4.23,1.39,5.67-0.15c1.16,2.13,4.64,2.43,6.15,0.51c1.73,1.92,5.42,1.33,6.46-1.04
						c1.28,0.84,3.12,0.72,4.28-0.28c0.05-0.05,0.1-0.09,0.15-0.14C332.74,65.95,332.57,67.86,331.82,70.33z"/>
				</g>
				<path class="st18" d="M333.35,60.44c0.6,1.34,0.27,3.03-0.78,4.05c-0.05,0.05-0.1,0.09-0.15,0.14c-1.16,1-3,1.12-4.28,0.28
					c-1.04,2.37-4.73,2.96-6.46,1.04c-1.51,1.92-4.99,1.62-6.15-0.51c-1.44,1.54-4.07,1.43-5.67,0.15c-0.42-0.33-0.77-0.75-1-1.24
					c-0.06-0.11-0.1-0.22-0.14-0.33c-0.09,0.1-0.18,0.19-0.28,0.27c-0.97,0.8-2.5,0.92-3.56,0.21c-0.87-0.58-1.35-1.66-1.28-2.69
					c0.01-0.22,0.05-0.43,0.11-0.64c-0.08,0.15-0.18,0.29-0.3,0.41c-0.87,0.93-2.71,0.97-3.56-0.09c-1.06-1.31-0.46-3.49,0.99-4.36
					c0.58-0.34,1.22-0.5,1.88-0.5c1.02,0,2.06,0.37,2.87,0.99c-0.87-1.25-0.56-3.16,0.66-4.07c1.22-0.9,3.14-0.65,4.08,0.54
					c-0.13-1.42,0.34-2.27,1.07-2.71c1.38-0.8,3.68-0.11,4.8,1.23c0,0,1.54-3.72,4.2-3.3c0.58,0.08,3.31,1.29,3.24,2.27
					c0,0.07-0.02,0.13-0.05,0.19c0.04-0.08,0.08-0.15,0.13-0.22c0.52-0.82,1.57-1.23,2.56-1.21c1.07,0.01,2.09,0.42,3.08,0.82
					c2.07,0.85,4.27,1.8,5.47,3.69C336.02,56.75,335.5,59.84,333.35,60.44z"/>
				<path class="st16" d="M314.43,73.3c-0.29,2.02-1.21,3.89-2.64,5.34c-1.81,1.73-3.35,0-3.37-2.63c0-2.38,0.89-6.15,3-6.85
					C313.53,68.46,314.82,70.71,314.43,73.3z"/>
			</g>
			<g>
				<path class="st18" d="M346.41,99.88c-0.75-2-4.25-4-6.4-4h-1.42c-2.48,0-5.57,0.2-8.57,0.55c-5.72,0.63-11.39,1.59-17,2.86
					c-2.58,0.68-5.07,1.54-7.05,2.28c-2.52,1-4,1.67-4,1.67s2.76,18.38,4.19,36.65c0.79,10.16,0.47,20.25,0.72,27.19h42.66
					c1.47-8.34,1.24-15.61,1.36-30.67C350.97,127.36,349.5,108.11,346.41,99.88z"/>
				<path class="st17" d="M305.24,129.67c0.32,3.83,0.65,7.85,1,11.87c5-7.3,7.77-27.27,7.77-27.27L305.24,129.67z"/>
			</g>
			<path class="st18" d="M299.56,104.58c-6.11,3.44-12.1,21.04-12.1,21.04l13.99,10.56c5.34-5.05,13.15-17.58,14-22.59
				C316.82,105.9,309.35,99.1,299.56,104.58z"/>
		</g>
		<g>
			<g>
				<path class="st18" d="M287.49,283.77c0,2.4-1.95,4.35-4.35,4.35c-2.4,0-4.35-1.95-4.35-4.35c0-2.4,1.95-4.35,4.35-4.35
					C285.54,279.42,287.49,281.37,287.49,283.77L287.49,283.77z"/>
				<path class="st18" d="M352.38,283.77c0,2.4,1.95,4.35,4.35,4.35c2.4,0,4.35-1.95,4.35-4.35c0-2.4-1.95-4.35-4.35-4.35
					C354.33,279.42,352.38,281.37,352.38,283.77L352.38,283.77z"/>
				<path class="st18" d="M315.7,282.38c0,2.4,1.95,4.35,4.35,4.35c2.4,0,4.35-1.95,4.35-4.35c0-2.4-1.95-4.35-4.35-4.35
					C317.65,278.03,315.7,279.98,315.7,282.38L315.7,282.38z"/>
			</g>
			<g>
				<path class="st18" d="M318.7,277.01v-8.41h-12.46c-2.45,0-4.89,0.23-7.29,0.68l-23.2,4.51c-1.14,0.22-1.89,1.33-1.67,2.47
					c0.2,1.02,1.1,1.74,2.14,1.71L318.7,277.01z"/>
				<path class="st18" d="M318.7,277.01v-8.41h12.47c2.45,0,4.89,0.23,7.29,0.68l26.08,4.17c1.14,0.22,1.89,1.33,1.67,2.47
					c-0.2,1.02-1.1,1.74-2.14,1.71L318.7,277.01z"/>
			</g>
			<g>
				<rect x="310.98" y="230.1" class="st18" width="15.43" height="38.51"/>
				<rect x="313.2" y="212.18" class="st18" width="11" height="17.91"/>
				<polygon class="st21" points="313.2,217.44 324.2,220.21 324.2,212.18 313.2,212.18 				"/>
			</g>
			<g>
				<g>
					<rect x="277.55" y="171.66" class="st18" width="5.59" height="23.85"/>
					<path class="st10" d="M311.16,212.18V108.5c0-3.93,1.69-7.66,4.65-10.25l7.39-6.47c2.48-2.17,5.67-3.37,8.97-3.37h26.7
						l13.05,13.88v109.89H311.16z"/>
					<path class="st10" d="M271.42,192.12h60.9v20.06H261.5c-3.98,0-7.2-3.22-7.21-7.19c0-1.29,0.35-2.56,1.01-3.68l0,0
						C258.67,195.61,264.8,192.12,271.42,192.12z"/>
					<path class="st22" d="M371.92,102.3v109.89H261.5c-3.97,0-7.2-3.22-7.2-7.2c0-1.29,0.34-2.56,1-3.67
						c3.37-5.69,9.48-9.19,16.09-9.19h30.67c5.03,0,9.11-4.08,9.11-9.11V108.5c0-3.92,1.69-7.66,4.65-10.24l7.39-6.47
						c2.48-2.18,5.67-3.37,8.97-3.37h26.69L371.92,102.3z"/>
					<g>
						<path class="st10" d="M320.05,212.18V108.5c0-3.93,1.69-7.66,4.65-10.25l7.39-6.47c2.48-2.17,5.67-3.37,8.97-3.37h20.81
							c3.76,0,7.35,1.55,9.92,4.29l5.32,5.66c2.37,2.53,3.69,5.86,3.69,9.33v94.11c0,5.73-4.65,10.38-10.38,10.38H320.05z"/>
						<path class="st13" d="M320.05,212.18V108.5c0-3.93,1.69-7.66,4.65-10.25l7.39-6.47c2.48-2.17,5.67-3.37,8.97-3.37h20.81
							c3.76,0,7.35,1.55,9.92,4.29l5.32,5.66c2.37,2.53,3.69,5.86,3.69,9.33v94.11c0,5.73-4.65,10.38-10.38,10.38H320.05z"/>
					</g>
				</g>
				<g>
					<path class="st10" d="M299.33,178.94c-12.3-4.29-25.7-4.29-38,0c-2.55,0.96-5.43-0.13-6.69-2.55l0,0
						c-1.14-2.41,0.39-5.53,3.49-6.62c14.37-5.02,30.01-5.02,44.38,0c3.1,1.08,4.63,4.21,3.49,6.62l0,0
						C304.73,178.8,301.88,179.89,299.33,178.94z"/>
					<path class="st22" d="M299.33,178.94c-12.3-4.29-25.7-4.29-38,0c-2.55,0.96-5.43-0.13-6.69-2.55l0,0
						c-1.14-2.41,0.39-5.53,3.49-6.62c14.37-5.02,30.01-5.02,44.38,0c3.1,1.08,4.63,4.21,3.49,6.62l0,0
						C304.73,178.8,301.88,179.89,299.33,178.94z"/>
				</g>
			</g>
		</g>
	</g>
</g>
<g id="Character_1">
	<g>
		<g id="_x3C_Group_x3E_">
			<g>
				<g>
					<path class="st18" d="M143.92,79.73c-0.21,0.59-0.06,1.18,0.33,1.31s0.87-0.23,1.07-0.82c0.2-0.59,0.06-1.19-0.32-1.32
						C144.62,78.77,144.13,79.13,143.92,79.73z"/>
					<path class="st23" d="M143.81,80.34c0.08,2.06,0.44,4.1,1.07,6.06c-1.02,0.29-2.12,0.12-3-0.46L143.81,80.34z"/>
					<path class="st18" d="M142.96,75.71c0.07,0.03,0.16,0.03,0.23,0c0.89-0.3,1.87-0.15,2.63,0.4c0.17,0.12,0.4,0.08,0.52-0.08
						c0.11-0.15,0.09-0.35-0.04-0.48c-0.95-0.71-2.19-0.91-3.32-0.55c-0.19,0.07-0.3,0.28-0.23,0.47c0.04,0.11,0.12,0.19,0.23,0.23
						L142.96,75.71z"/>
					<path class="st24" d="M121.99,81.91c1.12,5.69,2.23,16.12-1.75,19.92c0,0,1.56,5.77,12.14,5.77c11.63,0,5.56-5.77,5.56-5.77
						c-6.35-1.52-5.33-6.23-4.22-10.65L121.99,81.91z"/>
					<path class="st24" d="M124.58,71.59c-2.08,7.44-3.68,11.69-1.3,16.7c3.57,7.55,16.05,8.53,19.45-0.11
						c2.59-7.96,5.15-16.37-0.97-21.74c-4.35-3.87-11.01-3.47-14.88,0.88C125.79,68.55,125,70.01,124.58,71.59z"/>
				</g>
				<path class="st18" d="M116.51,74.06c-0.54-2.74-0.68-5.74,0.69-8.18c1.37-2.44,4.68-3.93,7.09-2.51
					c2.08-4.38,7.1-7.17,11.91-6.61c4.82,0.56,9.07,4.41,10.09,9.15c1.02,4.74-1.26,10.01-5.42,12.5c0.56-2.04,1.11-4.09,1.67-6.13
					c-0.48,2.83-2.02,5.46-4.26,7.25c0.32-2.04,0.64-4.09,0.96-6.13c-0.29,2.89-2.03,5.59-4.54,7.05c0.39-1.43,0.78-2.86,1.17-4.3
					c-0.17,0.63-1.73,5.13-2.26,5.75c-0.98,1.14-1.64,8.66-5.09,8.9C116.75,93.17,117.78,80.47,116.51,74.06z"/>
				<path class="st24" d="M132.43,77.63c-0.2,1.91,0.23,3.83,1.22,5.47c1.33,2.14,3.28,1.32,4-0.87c0.64-2,0.71-5.45-1.14-6.84
					C134.66,74,132.71,75.33,132.43,77.63z"/>
			</g>
			<g>
				<path class="st24" d="M104.24,149.71c-1.27-0.42-7.22-3.48-8.17-2.93c2.75-7.01,4.46-8.08,5.71-12.54
					c0.7-2.49,0.22-4.43-1.33-6.51c-1.76-2.35-2.37-3.55-5.3-3.26c-4.02,6.72-9.08,15.02-11.06,22.59
					c-0.67,2.55-1.15,4.49,0.37,6.64c1.34,1.9,3.81,2.67,6.13,2.87c5.57,0.5,13.84-0.52,13.74-3.83
					C104.25,150.66,104.24,149.71,104.24,149.71z"/>
				<g>
					<path class="st24" d="M103.29,149.46l4.72-1.53l-0.42,8.53c0,0-3.78,0.14-5.8-2.4L103.29,149.46z"/>
					<polygon class="st24" points="113.92,147.79 113.24,154.83 107.6,156.46 108.02,147.92 					"/>
				</g>
			</g>
			<g>
				<path class="st24" d="M168.04,155.51c0,0-6.58-5.16-15.23-22.22c-1.28-2.38-2.51-4.79-3.68-7.21c-1.18-2.45-2.31-4.84-3.38-7.41
					l10.22-4.4c2.11,4.58,5.38,9.31,7.7,13.86c2.32,4.55,7.8,15.33,8.48,16.33c0.34,0.52,0.71,0.95,1.06,1.43l0.53,0.7l-6.59,7.62
					L168.04,155.51z"/>
				<g>
					<g>
						<path class="st24" d="M176.68,122.36l-2.05-2.44l-0.95-3.65l6.17-5.73c0,0,1.49,1.84,2.54,3.82c0.16,0.3,0.23,0.64,0.21,0.99
							l-0.25,6.42L176.68,122.36z"/>
						<polygon class="st24" points="173.78,112.31 178.4,108.11 179.86,110.56 173.69,116.27 						"/>
					</g>
					<path class="st24" d="M176.78,120.58c0.16-0.69,0.3,0.66,0.76,0.12c1.36-1.63,3.35-1.81,4.52-0.04
						c1.18,1.77,0.17,19.62-1.71,25.21c-1.25,3.71-1.92,6.68-5.12,8.94c-1.32,0.93-2.88,1.64-4.5,1.61
						c-1.62-0.03-3.29-0.91-3.9-2.41c-0.95-2.33,2.58-10.73,3.84-13.44C174.62,132.07,174.88,128.63,176.78,120.58z"/>
				</g>
				<g>
					<g>
						<path class="st10" d="M163.54,119.81c2.72-0.03,5.45-0.05,8.17-0.08c1.16-0.01,2.37-0.03,3.42-0.54
							c1.37-0.67,2.24-2.07,2.79-3.49c1.16-2.96,1.25-6.22,1.71-9.36c0.46-3.15,1.41-6.43,3.79-8.54
							c-4.34,0.58-12.02-0.78-15.35,2.77C166.31,102.45,163.21,119.81,163.54,119.81z"/>
						<path class="st13" d="M163.54,119.81c2.72-0.03,5.45-0.05,8.17-0.08c1.16-0.01,2.37-0.03,3.42-0.54
							c1.37-0.67,2.24-2.07,2.79-3.49c1.16-2.96,1.25-6.22,1.71-9.36c0.46-3.15,1.41-6.43,3.79-8.54
							c-4.34,0.58-12.02-0.78-15.35,2.77C166.31,102.45,163.21,119.81,163.54,119.81z"/>
					</g>
					<path class="st24" d="M177.52,107.67L177.52,107.67c-0.47,0.12-0.78,1.8-0.68,2.28l0.46,0.82l0.93,4.05l3.12-1.73l-2.81-4.99
						C178.34,107.74,177.92,107.56,177.52,107.67z"/>
				</g>
			</g>
			<path class="st10" d="M107.05,103.26c-7.3,1.67-18.09,24.41-18.09,24.41l14.65,10c3.64-5.23,8.6-13.12,11.4-18.85
				C119.34,109.76,114.51,101.55,107.05,103.26z"/>
			<g>
				<path class="st18" d="M117.72,103.81c-0.84-1.83-1.75-3.92,0.14-4.57c2.09-0.72,13.53-1.46,17.47-0.11
					c2.16,0.59,3.44,2.82,2.85,4.98c-0.01,0.03-0.01,0.05-0.02,0.08L117.72,103.81z"/>
				<path class="st17" d="M111.57,116.39L101.15,136l2.46,1.68c0,0,4.72-6.57,7.96-12.25V116.39z"/>
				<path class="st10" d="M151.44,113.27c1.58,7.98-2.11,26.97-2.07,57.97h-41.63c-0.27-6.27,4.28-21.11-1.38-50.67
					c-0.18-0.96-0.27-17.15,0.69-17.31c4.03-0.71,8.1-1.19,12.19-1.44c5.89-0.35,11.81-0.35,17.7,0c2.41,0.24,6.2,1.74,8.59,2.6
					C149.27,105.76,150.67,109.37,151.44,113.27z"/>
				<path class="st17" d="M140.42,121.22c1.09,6.57,5.39,15.25,9.69,20.35c0.17-3.73,0.54-7.62,0.53-10.61L140.42,121.22z"/>
			</g>
			<path class="st10" d="M137.46,111.34c-1,7.37,13.5,26.19,13.5,26.19l14.59-10c0,0-4.05-10.37-10.86-17.17
				C146.93,102.56,138.6,103.32,137.46,111.34z"/>
			<g>
				<polygon class="st24" points="185.15,274.46 192.93,274.46 194.7,256.43 186.92,256.43 				"/>
				<polygon class="st17" points="194.58,257.53 193.68,266.82 185.89,266.82 186.8,257.53 				"/>
			</g>
			<g>
				<polygon class="st24" points="154.46,274.46 162.24,274.46 166.15,256.43 158.37,256.43 				"/>
				<g class="st25">
					<polygon points="158.2,257.39 165.98,257.39 163.96,266.68 156.18,266.68 					"/>
				</g>
			</g>
			<path class="st18" d="M193.37,270.97h-8.49c-0.32,0-0.6,0.29-0.67,0.7l-1.54,8.9c-0.14,0.79,0.23,1.57,0.84,1.76
				c0.09,0.03,0.19,0.04,0.28,0.04c3.06-0.06,7.49-0.3,11.34-0.3c4.51,0,8.4,0.31,13.68,0.31c3.2,0,4.09-4.18,2.75-4.56
				c-6.09-1.72-11.06-1.9-16.32-6.11C194.68,271.25,194.03,270.99,193.37,270.97z"/>
			<g>
				<path class="st10" d="M199.55,273.86c1,0,2-0.14,2.29-0.59c0.17-0.24,0.17-0.57,0-0.81c-0.13-0.21-0.34-0.36-0.58-0.43
					c-1.3-0.35-4,1.2-4.13,1.27c-0.07,0.04-0.11,0.11-0.09,0.19c0.01,0.07,0.07,0.13,0.14,0.15
					C197.96,273.78,198.75,273.86,199.55,273.86z M200.79,272.35c0.12-0.02,0.23-0.02,0.35,0c0.15,0.03,0.28,0.12,0.36,0.26
					c0.13,0.23,0.09,0.34,0,0.4c-0.36,0.51-2.33,0.52-3.78,0.31C198.67,272.8,199.71,272.47,200.79,272.35z"/>
				<path class="st10" d="M197.2,273.64h0.08c0.94-0.42,2.8-2.1,2.65-3c0-0.21-0.18-0.46-0.68-0.52c-0.36-0.03-0.72,0.08-1,0.32
					c-1,0.81-1.2,2.91-1.21,3c-0.01,0.07,0.02,0.13,0.07,0.17C197.14,273.63,197.17,273.64,197.2,273.64z M199.1,270.49h0.11
					c0.33,0,0.35,0.17,0.36,0.21c0.09,0.53-1.18,1.85-2.14,2.42c0.08-0.88,0.43-1.72,1-2.39
					C198.61,270.57,198.85,270.49,199.1,270.49z"/>
			</g>
			<path class="st18" d="M162.79,270.97h-8.74c-0.32,0-0.59,0.29-0.66,0.7l-1.54,8.9c-0.13,0.8,0.26,1.59,0.88,1.77
				c0.08,0.02,0.17,0.03,0.26,0.03c3.05-0.06,4.54-0.3,8.38-0.3c2.37,0,5.4,0.31,8.67,0.31c3.27,0,3.69-4.18,2.35-4.56
				c-6-1.7-6.41-4.04-8.33-6.28C163.7,271.16,163.25,270.95,162.79,270.97z"/>
			<g>
				<path class="st10" d="M167.36,274.85c0.67,0.09,1.34-0.1,1.87-0.51c0.19-0.26,0.19-0.61,0-0.87c-0.12-0.22-0.33-0.38-0.58-0.43
					c-1.14-0.27-3.29,1.2-3.38,1.26c-0.06,0.05-0.09,0.12-0.08,0.19c0.01,0.07,0.07,0.13,0.14,0.14
					C165.99,274.78,166.68,274.85,167.36,274.85z M168.36,273.37c0.07-0.01,0.15-0.01,0.22,0c0.15,0.02,0.27,0.11,0.34,0.24
					c0.17,0.31,0.07,0.43,0,0.48c-0.33,0.43-1.92,0.44-3.09,0.25c0.75-0.51,1.61-0.84,2.51-0.97H168.36z"/>
				<path class="st10" d="M165.38,274.64h0.08c0.81-0.44,2.37-2.14,2.2-3c-0.05-0.28-0.3-0.49-0.59-0.49
					c-0.28-0.03-0.57,0.05-0.78,0.24c-0.9,0.74-1.09,3-1.1,3.08c0,0.07,0.03,0.13,0.09,0.17
					C165.31,274.65,165.35,274.65,165.38,274.64z M166.95,271.49h0.08c0.24,0,0.26,0.14,0.27,0.19c0.1,0.51-0.9,1.8-1.7,2.41
					c0.05-0.89,0.37-1.74,0.92-2.44C166.64,271.55,166.79,271.49,166.95,271.49L166.95,271.49z"/>
			</g>
			<g>
				<g>
					<path class="st18" d="M136.89,171.25c0,0,36.85,15.21,44.47,26.91c-4.53,29.74-12.66,63.62-12.66,63.62h-13.86
						c0,0-0.38-18.84,3.59-43.76c2-36.35-63.42,1.26-50.71-46.77H136.89z"/>
					<path class="st26" d="M162.36,196.32c-2.58,0.1-5.14,0.49-7.7,0.89c-2.69,0.41-5.38,0.83-8.08,1.24
						c4.16,3.5,8.56,6.71,13.16,9.62c2.79,1.76,5.82,3.47,9.12,3.48c3.69,0.02,13.74-4.75,12.07-9.67
						C179.25,196.89,166.56,196.16,162.36,196.32z"/>
				</g>
				<path class="st18" d="M149.37,171.25c0,0,34.06,4.39,52.84,15.09c5.78,3.29,4.97,13.86,4.82,20.82
					c-0.41,18.68-4,37.15-10.62,54.62h-11.56c0,0,0.59-18.87,0.2-49.32c-0.12-9.13-18.55-12.14-36.56-13.2
					c-15.56-0.98-29.21-10.69-35.24-25.07l-1.23-2.94H149.37z"/>
				<path class="st10" d="M199.24,258.68c0.06,0-0.75,5.47-0.75,5.47h-16l-0.44-4.88L199.24,258.68z"/>
				<path class="st10" d="M170.04,258.68c0.06,0-1.47,5.47-1.47,5.47h-16l0.29-4.88L170.04,258.68z"/>
			</g>
			<g>
				<g>
					<polygon class="st10" points="127.04,198.85 115.58,283.35 113.51,283.07 122.35,198.21 					"/>
					<polygon class="st27" points="126.63,201.87 115.58,283.35 113.51,283.07 121.97,201.86 					"/>
				</g>
				<g>
					<path class="st10" d="M167.37,201.87h-65c0-4.1,3.32-7.42,7.42-7.42l0,0h50.16C164.05,194.45,167.37,197.77,167.37,201.87
						L167.37,201.87z"/>
					<path class="st22" d="M167.37,201.87h-65c0-4.1,3.32-7.42,7.42-7.42l0,0h50.16C164.05,194.45,167.37,197.77,167.37,201.87
						L167.37,201.87z"/>
				</g>
				<polygon class="st10" points="105.38,201.86 95.58,284.02 97.68,284.02 110.11,201.86 				"/>
				<g>
					<polygon class="st10" points="164.36,201.86 174.16,284.02 172.06,284.02 159.64,201.86 					"/>
					<polygon class="st27" points="164.36,201.86 174.16,284.02 172.06,284.02 159.64,201.86 					"/>
				</g>
				<polygon class="st10" points="151.25,201.86 151.44,284.02 149.35,284.02 146.52,201.86 				"/>
			</g>
		</g>
	</g>
</g>
</svg>
